<svg aria-hidden="true" style="position: absolute; width: 0; height: 0; overflow: hidden;" version="1.1"
     xmlns="http://www.w3.org/2000/svg" xmlns:xlink="http://www.w3.org/1999/xlink">
    <defs>
        <symbol id="icon-logo" viewBox="0 0 32 32">
            <path fill="#fff" style="fill: var(--color1, #fff)"
                  d="M8.591 20.184c1.033 0 1.872 0.84 1.872 1.872s-0.839 1.872-1.872 1.872c-1.032 0-1.872-0.84-1.872-1.872s0.84-1.872 1.872-1.872z"/>
            <path fill="#fff" style="fill: var(--color1, #fff)"
                  d="M23.409 20.184c1.032 0 1.872 0.84 1.872 1.872s-0.84 1.872-1.872 1.872c-1.033 0-1.872-0.84-1.872-1.872s0.84-1.872 1.872-1.872z"/>
            <path fill="#fff" style="fill: var(--color1, #fff)"
                  d="M13.023 7.391v5.191h-9.708l4.091-4.347c0.386-0.411 1.391-0.845 1.955-0.845h3.662z"/>
            <path fill="#c5d8e2" style="fill: var(--color2, #c5d8e2)"
                  d="M20.979 8.066l2.1 4.516h-10.056v-5.191h6.892c0.335 0 0.922 0.372 1.064 0.675z"/>
            <path fill="#5a50ed" style="fill: var(--color3, #5a50ed)"
                  d="M28.569 14.625c0-0.323 0.052-0.633 0.149-0.923 0-0.001-2.388-0.797-2.388-0.797-0.533-0.177-1.164-0.739-1.404-1.247l-2.1-4.462c-0.478-1.016-1.789-1.848-2.912-1.848h-10.553c-1.123 0-2.672 0.669-3.442 1.488l-4.709 5.003c-0.385 0.409-0.7 1.203-0.7 1.765v6.41c0 1.123 0.919 2.043 2.043 2.043h1.442c0-2.538 2.058-4.596 4.596-4.596s4.596 2.058 4.596 4.596h5.627c0-2.538 2.058-4.596 4.596-4.596s4.596 2.058 4.596 4.596c0 0 0.727 0 1.706 0s1.779-0.919 1.779-2.043v-2.469c-1.613 0-2.92-1.307-2.92-2.92zM3.316 12.582l4.091-4.347c0.386-0.411 1.391-0.845 1.955-0.845h10.553c0.335 0 0.922 0.372 1.064 0.675l2.1 4.516h-19.763z"/>
            <path fill="#9b6971" style="fill: var(--color4, #9b6971)"
                  d="M8.591 17.46c2.538 0 4.596 2.058 4.596 4.596s-2.058 4.596-4.596 4.596-4.596-2.058-4.596-4.596 2.058-4.596 4.596-4.596zM10.463 22.056c0-1.032-0.839-1.872-1.872-1.872s-1.872 0.84-1.872 1.872c0 1.032 0.84 1.872 1.872 1.872s1.872-0.84 1.872-1.872z"/>
            <path fill="#9b6971" style="fill: var(--color4, #9b6971)"
                  d="M23.409 17.46c2.538 0 4.596 2.058 4.596 4.596s-2.058 4.596-4.596 4.596-4.596-2.058-4.596-4.596 2.058-4.596 4.596-4.596zM25.281 22.056c0-1.032-0.84-1.872-1.872-1.872s-1.872 0.84-1.872 1.872c0 1.032 0.84 1.872 1.872 1.872s1.872-0.84 1.872-1.872z"/>
            <path fill="#ffd747" style="fill: var(--color5, #ffd747)"
                  d="M28.719 13.701c1.524 0.508 2.77 2.237 2.77 3.843-1.613 0-2.92-1.307-2.92-2.92 0-0.323 0.052-0.633 0.15-0.923z"/>
            <path fill="#1d1339" style="fill: var(--color6, #1d1339)"
                  d="M8.591 24.439c1.314 0 2.383-1.069 2.383-2.383s-1.069-2.383-2.383-2.383-2.383 1.069-2.383 2.383c0 1.314 1.069 2.383 2.383 2.383zM8.591 20.695c0.751 0 1.362 0.611 1.362 1.362s-0.611 1.362-1.362 1.362-1.362-0.611-1.362-1.362 0.611-1.362 1.362-1.362z"/>
            <path fill="#1d1339" style="fill: var(--color6, #1d1339)"
                  d="M23.409 19.673c-1.314 0-2.383 1.069-2.383 2.383s1.069 2.383 2.383 2.383c1.314 0 2.383-1.069 2.383-2.383s-1.069-2.383-2.383-2.383zM23.409 23.418c-0.751 0-1.362-0.611-1.362-1.362s0.611-1.362 1.362-1.362 1.362 0.611 1.362 1.362-0.611 1.362-1.362 1.362z"/>
            <path fill="#1d1339" style="fill: var(--color6, #1d1339)"
                  d="M9.362 7.901h1.619c0.282 0 0.511-0.229 0.511-0.511s-0.229-0.511-0.511-0.511h-1.619c-0.71 0-1.84 0.489-2.327 1.005l-4.091 4.347c-0.14 0.148-0.178 0.366-0.097 0.553s0.265 0.308 0.469 0.308h19.763c0.174 0 0.337-0.089 0.43-0.236s0.106-0.332 0.033-0.49l-2.101-4.518c-0.226-0.48-0.996-0.968-1.526-0.968h-6.892c-0.282 0-0.511 0.229-0.511 0.511l-0 4.681h-8.015l3.281-3.486c0.289-0.307 1.162-0.684 1.583-0.684zM13.534 7.901h6.38c0.15 0.007 0.534 0.251 0.602 0.38l1.762 3.79h-8.744l0-4.17z"/>
            <path fill="#1d1339" style="fill: var(--color6, #1d1339)"
                  d="M32 17.545c0-1.813-1.399-3.755-3.12-4.328-0.001-0-2.388-0.796-2.388-0.796-0.399-0.133-0.924-0.6-1.103-0.98l-2.1-4.462c-0.565-1.201-2.047-2.141-3.374-2.141h-10.553c-1.269 0-2.944 0.724-3.814 1.648l-4.709 5.003c-0.47 0.5-0.839 1.429-0.839 2.115v6.41c0 1.408 1.145 2.553 2.553 2.553h0.957c0.257 2.577 2.437 4.596 5.081 4.596s4.824-2.019 5.081-4.596h3.098c0.282 0 0.511-0.229 0.511-0.511s-0.229-0.511-0.511-0.511h-3.098c-0.257-2.577-2.437-4.596-5.081-4.596s-4.824 2.019-5.081 4.596h-0.957c-0.845 0-1.532-0.687-1.532-1.532v-6.41c0-0.428 0.268-1.103 0.561-1.415l4.709-5.003c0.677-0.719 2.083-1.327 3.071-1.327h10.553c0.932 0 2.054 0.712 2.45 1.555l2.1 4.462c0.301 0.64 1.034 1.291 1.704 1.514l1.94 0.647c-0.034 0.193-0.051 0.39-0.051 0.588 0 1.718 1.27 3.145 2.92 3.393v1.996c0 0.845-0.569 1.532-1.268 1.532h-1.221c-0.257-2.577-2.437-4.596-5.081-4.596-2.816 0-5.106 2.291-5.106 5.106s2.291 5.106 5.106 5.106c2.643 0 4.824-2.019 5.081-4.596h1.221c1.263 0 2.29-1.145 2.29-2.553v-2.469zM8.591 17.971c2.252 0 4.085 1.833 4.085 4.085s-1.833 4.085-4.085 4.085-4.085-1.833-4.085-4.085 1.833-4.085 4.085-4.085zM23.409 26.141c-2.253 0-4.085-1.833-4.085-4.085s1.833-4.085 4.085-4.085 4.085 1.833 4.085 4.085-1.833 4.085-4.085 4.085zM29.080 14.625c0-0.066 0.003-0.132 0.008-0.197 0.896 0.519 1.62 1.523 1.829 2.537-1.053-0.258-1.837-1.209-1.837-2.34z"/>
        </symbol>
    </defs>
</svg>
